<svg xmlns="http://www.w3.org/2000/svg" viewBox="0 0 5120 5120">
  <path fill="#BE1931" d="M935 2483c-58-16-129-90-140-147-11-56-16-66-31-66-11 0-14-25-14-139 0-130 1-139 20-144 14-3 20-14 20-31 0-33 30-94 62-123 99-93 288-55 339 68 15 37 23 36 39-1 17-40 79-95 125-110 56-18 136-8 184 23 45 30 67 59 86 113l12 36 7-28c13-53 54-103 108-130 44-23 61-26 113-21 95 7 157 55 190 145 8 21 14 29 14 19 1-26 36-89 63-114 99-93 288-55 339 68 15 37 23 36 39-1 17-40 79-95 125-110 59-19 139-8 188 26 48 34 87 95 87 137 0 20 6 30 20 34 19 5 20 14 20 144 0 116-2 139-15 139-8 0-17 12-21 28-13 58-17 68-41 104-15 22-46 48-76 63-87 43-173 29-241-38-23-23-46-58-52-77l-10-35-29 55c-19 33-47 66-73 85-39 27-52 30-115 30-62 0-78-4-111-27-45-31-96-100-97-132 0-14-8-4-23 29-83 179-309 180-391 2-22-47-23-47-29-20-13 50-56 101-109 128-87 43-173 29-241-38-23-23-46-58-52-77l-10-35-29 55c-41 75-94 111-171 115-32 2-68 1-79-2zm3111-7c-69-26-136-114-136-179 0-17-5-27-15-27-13 0-15-22-15-140s2-140 15-140c8 0 15-9 15-20 0-60 58-140 125-171 120-56 265 14 295 143 7 29 18 48 26 48 11 0 14 27 14 140 0 116-3 140-15 140-9 0-17 14-21 38-9 55-50 119-94 148-48 32-137 41-194 20z"/>
  <path fill="#5C913B" d="M905 3461c-62-28-102-82-119-163-4-16-13-28-21-28-13 0-15-23-15-140s2-140 15-140c8 0 17-12 21-27 19-89 51-132 124-168 85-43 205-9 259 72 17 26 31 52 31 60 0 25 16 13 28-22 19-50 93-111 150-124 77-16 136 2 193 59 34 34 50 59 55 86l7 39 15-44c8-24 32-61 53-82 110-110 302-68 350 78l12 38 14-40c55-158 280-187 372-48 17 26 31 52 31 60 0 25 16 13 28-22 30-80 149-145 232-126 80 18 153 82 165 145 11 56 16 66 31 66 11 0 14 25 14 139 0 127-2 139-19 144-12 3-20 17-24 43-20 119-145 190-272 154-51-14-109-68-127-117-15-42-24-42-37 0-42 126-238 169-339 74-28-26-62-88-62-114-1-10-14 10-30 44-21 47-38 68-71 88-51 33-138 44-195 25-48-16-111-82-126-133l-11-38-18 47c-22 57-50 88-104 114-46 23-121 25-173 6-43-15-98-70-114-112-15-43-24-43-37-1-34 102-180 157-286 108zm3130 2c-67-35-124-113-125-170 0-14-6-23-15-23-13 0-15-22-15-140s2-140 15-140c9 0 15-9 15-23 0-40 49-123 88-150 66-46 156-55 223-21 46 23 96 88 109 143 7 31 17 51 26 51 11 0 14 27 14 140s-3 140-14 140c-8 0-19 19-26 48-14 61-61 119-114 143-51 23-140 24-181 2z"/>
  <path fill="#BF6952" d="M69 5097c-54-36-69-77-69-190 0-61 5-110 14-131 15-36 56-69 99-80 15-3 27-13 27-21 0-13 32-15 215-15 184 0 215 2 215 15s228 15 1990 15 1990-2 1990-15 31-15 215-15c165 0 215 3 215 13 0 6 24 23 53 37 77 37 89 66 85 207-3 125-15 153-79 185-32 17-171 18-2485 18H103l-34-23z"/>
  <path fill="#3B94D9" d="M905 1471c-62-28-102-82-119-163-4-16-13-28-21-28-13 0-15-23-15-144 0-131 2-144 19-149 12-3 20-17 25-45 10-68 83-135 168-156 40-9 122 12 166 44 25 18 46 45 58 74 11 25 21 46 24 46s13-20 24-45c53-130 246-160 342-53 27 29 54 81 55 105 0 10 9-5 20-34 70-183 339-180 400 4l12 38 14-40c16-47 55-90 103-114 54-28 84-32 139-20 69 15 124 57 147 113 11 25 21 46 24 46s13-20 24-45c42-103 176-149 281-97 60 29 115 102 115 153 0 12 8 23 20 26 19 5 20 14 20 149 0 132-2 144-18 144-13 0-18 9-20 32-4 48-42 109-89 142-54 38-133 46-198 21-50-19-111-83-124-130l-8-30-15 35c-21 50-65 98-109 120-70 36-180 21-237-33-28-26-62-89-62-114 0-10-11 5-24 33-27 59-55 87-110 116-58 30-152 21-204-18-49-38-69-62-82-102l-12-32-26 52c-51 101-162 144-267 103-50-19-111-83-124-130l-8-30-15 35c-21 50-65 98-109 120-49 25-130 26-184 1zm3130 0c-67-31-125-111-125-171 0-11-7-20-15-20-13 0-15-23-15-145s2-145 15-145c8 0 15-8 15-17 0-10 11-41 24-70 60-128 237-158 338-58 36 36 51 64 62 117 4 16 13 28 21 28 13 0 15 24 15 145 0 118-3 145-14 145-8 0-19 19-26 48-14 59-58 115-111 142-49 25-130 26-184 1z"/>
  <path fill="#FFAC33" d="M915 4461c-59-27-103-78-121-138-9-32-21-53-30-53-11 0-14-26-14-145 0-121 2-145 15-145 8 0 17-12 20-27 13-62 50-117 99-148 42-26 59-30 115-30 94 1 161 45 197 130l17 40 8-28c21-76 120-147 205-147 51 0 137 42 164 80 12 16 27 46 35 67l13 38 7-33c11-49 77-117 132-136s84-20 138-5c50 14 130 93 140 140l7 33 14-39c20-58 45-87 105-118 46-25 62-28 110-24 86 7 152 55 185 132l17 40 8-28c21-76 120-147 205-147 56 0 140 44 169 89 13 20 29 55 35 79 6 25 17 42 25 42 13 0 15 24 15 144 0 131-2 144-19 149-12 3-20 17-25 46-12 80-113 160-201 161-60 0-138-41-174-91-17-23-31-50-31-61 0-29-15-21-28 16-7 19-22 46-33 60-30 39-110 76-161 76-87-1-178-67-201-148l-13-44-13 41c-15 53-61 104-115 130-104 51-231 1-279-109l-20-45-17 40c-34 77-119 135-197 135-83 0-203-90-203-152 0-29-15-21-28 16-19 51-49 84-103 111-58 30-118 32-174 6zm3118-5c-61-29-108-87-118-146-4-25-12-40-21-40-11 0-14-27-14-145s3-145 14-145c9 0 17-16 21-40 9-52 59-117 110-144 29-15 58-21 107-21 58 0 72 4 110 30 43 30 82 92 93 148 3 15 12 27 20 27 13 0 15 24 15 145s-2 145-15 145c-8 0-17 12-20 28-12 62-51 116-105 150-67 40-122 42-197 8z"/>
  <path fill="#D5AB88" d="M140 2402c0-2207 1-2289 19-2322 33-62 60-75 174-78 55-2 117 1 137 7 45 13 80 50 89 93l7 33 1990 3 1991 2 12-39c14-47 58-88 106-97 18-3 76-4 129-2 107 3 138 18 168 79 16 32 17 188 18 2322v2287h-430v-210c0-180-2-210-15-210s-15-23-15-145 2-145 15-145c23 0 23-698 0-706-22-9-22-284 0-284 13 0 15-46 15-355 0-307-2-356-15-361-22-9-22-284 0-284 13 0 15-46 15-355s-2-355-15-355-15-23-15-145 2-145 15-145 15-30 15-210V570H570v210c0 180 2 210 15 210s15 23 15 145-2 145-15 145-15 46-15 355 2 355 15 355c12 0 15 20 15 118 0 64 3 127 6 138 4 16 0 23-15 27-21 5-21 9-21 361 0 310 2 356 15 356 12 0 15 20 15 118 0 64 3 127 6 138 4 16 0 23-15 27-21 5-21 9-21 356 0 305 2 351 15 351s15 23 15 145-2 145-15 145-15 30-15 210v210H140V2402z"/>
  <path fill="#CCD6DD" d="M570 4125v-145h210v290H570v-145zm2350 0v-145h990v290h-990v-145zm1420 0v-145h210v290h-210v-145zm103-852-103-4v-279h210v145c0 80-1 144-2 143-2-1-49-4-105-5zM570 3130v-140h210v280H570v-140zm2350 0v-140h990v280h-990v-140zm1523-857-103-4v-279h210v145c0 80-1 144-2 143-2-1-49-4-105-5zM570 2130v-140h210v280H570v-140zm2350 0v-140h990v280h-990v-140zM570 1135V990h210v290H570v-145zm2350 0V990h990v290h-990v-145zm1420 0V990h210v290h-210v-145z"/>
</svg>